<svg xmlns="http://www.w3.org/2000/svg" data-name="Layer 1" viewBox="0 0 100 125" x="0px" y="0px"><title>Artboard 7</title><path d="M90.09,25.59v-9a5.93,5.93,0,0,0-5.92-5.92H81.69L78.74,4.72a7.09,7.09,0,0,0-6.39-4H27.65a7.09,7.09,0,0,0-6.39,4l-2.95,5.95H15.83a5.93,5.93,0,0,0-5.92,5.92v9a5.93,5.93,0,0,0,5.92,5.92H84.17A5.93,5.93,0,0,0,90.09,25.59Zm-6-.08H15.91V16.66h4.26A3,3,0,0,0,22.86,15l3.77-7.61a1.13,1.13,0,0,1,1-.63h44.7a1.13,1.13,0,0,1,1,.63L77.14,15a3,3,0,0,0,2.69,1.67h4.26Zm-2.86,28a3,3,0,0,1-3,2.71H59.75A3,3,0,0,1,57,54.52a7.73,7.73,0,0,0-14.05,0,3,3,0,0,1-2.72,1.74H21.75a3,3,0,0,1-3-2.71L17.24,38.41a3,3,0,0,1,6-.57l1.26,12.42h14a13.72,13.72,0,0,1,23,0h14l1.26-12.42a3,3,0,0,1,6,.57Zm-3.85,8.71H59.75A3,3,0,0,0,57,64a7.73,7.73,0,0,1-14,0,3,3,0,0,0-2.72-1.74H22.61a3,3,0,0,0-3,3.29l3,28.28a6,6,0,0,0,6,5.43H71.42a6,6,0,0,0,6-5.4L80.24,67l.13-1.41a3,3,0,0,0-3-3.28Zm-6,31-42.84,0-2.65-25H38.49a13.72,13.72,0,0,0,23,0H74.07Z"/><text x="0" y="115" fill="#000000" font-size="5px" font-weight="bold" font-family="'Helvetica Neue', Helvetica, Arial-Unicode, Arial, Sans-serif">Created by Gregor Črešnar</text><text x="0" y="120" fill="#000000" font-size="5px" font-weight="bold" font-family="'Helvetica Neue', Helvetica, Arial-Unicode, Arial, Sans-serif">from the Noun Project</text></svg>